<?xml version="1.0" encoding="UTF-8" standalone="yes"?>
<svg version="1.1" id="Layer_1" xmlns:x="&amp;ns_extend;" xmlns:i="&amp;ns_ai;" xmlns:graph="&amp;ns_graphs;" xmlns="http://www.w3.org/2000/svg" xmlns:xlink="http://www.w3.org/1999/xlink" x="0px" y="0px" viewBox="0 0 315 202.763" style="enable-background:new 0 0 315 202.763;" xml:space="preserve">
      <style type="text/css">.st0{fill:#B2C5D8;}</style>
    <metadata>
              <sfw>
                      <slices/>
            <sliceSourceBounds bottomLeftOrigin="true" height="202.763" width="315" x="8394.7" y="4371.963"/>
                  </sfw>
          </metadata>
    <g id="color_index_0" fill="rgba(211, 225, 240, 1)">
              <path d="M243.687,60.805l-0.222-0.441l-56.193-8.166L161.509,0l-25.76,52.199l-55.708,8.093l-0.463,0.069&#x9;&#x9;L0.941,201.085L0,202.763l109.549-15.92l0.493-0.07l47.512-96.267l47.286,95.819l0.222,0.448L315,202.748L243.687,60.805z&#x9;&#x9; M61.175,97.182l69.089-10.039l30.255-61.303l30.033,60.857l0.222,0.446l69.063,10.035l16.587,33.014l-79.629-11.574&#x9;&#x9;l-37.266-75.509l-37.266,75.509l-79.529,11.559L61.175,97.182z M41.573,132.26l81.459-11.839l0.493-0.07l36.006-72.957&#x9;&#x9;l35.784,72.509l0.222,0.448l81.925,11.905l16.587,33.013l-92.49-13.44l-43.017-87.165l-43.02,87.165l-92.386,13.425L41.573,132.26z&#x9;&#x9; M80.778,62.101l56.23-8.169l24.501-49.647l24.282,49.201l0.222,0.446l56.2,8.166l16.586,33.012l-66.765-9.7L160.52,21.555&#x9;&#x9;l-31.514,63.855l-66.664,9.686L80.778,62.101z M157.554,86.22l-48.771,98.819L3.533,200.333l18.439-32.997l94.317-13.704&#x9;&#x9;l0.493-0.07l41.761-84.613l41.535,84.165l0.222,0.448l94.787,13.771l16.588,33.015l-105.353-15.309L157.554,86.22z"/>
          </g>
  </svg>